# xmcd
#
# Track frame offsets:
#	150
#	14275
#	29397
#	43700
#	57290
#	71985
#	85860
#	99530
#	108902
#	121425
#	134050
#	146235
#	157647
#	168020
#
# Disc length: 2391 seconds
#
# Revision: 2
# Processed by: cddbd v1.5.2PL0 Copyright (c) Steve Scherf et al.
# Submitted via: EasyCDDAExtractor 11.1.0.1
#
DISCID=bd09550e
DTITLE=Jimmy Rogers - Hard Working Man
DYEAR=1992
DGENRE=Blues
TTITLE0=I Used To Have A Woman
TTITLE1=Hard Working Man
TTITLE2=My Little Machine
TTITLE3=Give Love Another Chance
TTITLE4=What's The Matter
TTITLE5=Blues Leave Me Alone
TTITLE6=Sloppy Drunk
TTITLE7=If It Ain't Me
TTITLE8=One Kiss
TTITLE9=I Can't Believe
TTITLE10=What Have I Done
TTITLE11=Trace Of You
TTITLE12=Don't Turn Me Down
TTITLE13=Don't You Know My Baby
EXTD=
EXTT0=
EXTT1=
EXTT2=
EXTT3=
EXTT4=
EXTT5=
EXTT6=
EXTT7=
EXTT8=
EXTT9=
EXTT10=
EXTT11=
EXTT12=
EXTT13=
PLAYORDER=
